<svg width="32" height="35" viewBox="0 0 32 35" fill="none" xmlns="http://www.w3.org/2000/svg">
<path d="M0.893555 16.5449C0.893555 20.7276 2.47203 24.7389 5.28174 27.6965C8.09144 30.6541 11.9022 32.3156 15.8757 32.3156C19.8493 32.3156 23.66 30.6541 26.4697 27.6965C29.2795 24.7389 30.8579 20.7276 30.8579 16.5449" stroke="#48624C" stroke-width="1.24852" stroke-linecap="round" stroke-linejoin="round"/>
<path d="M15.8757 32.3156C15.8757 28.133 17.4542 24.1216 20.2639 21.1641C23.0736 18.2065 26.8844 16.5449 30.8579 16.5449M0.893555 16.5449C2.86104 16.5449 4.80927 16.9528 6.62699 17.7454C8.44471 18.538 10.0963 19.6996 11.4876 21.1641C12.8788 22.6285 13.9824 24.3671 14.7353 26.2805C15.4882 28.1938 15.8757 30.2446 15.8757 32.3156" stroke="#48624C" stroke-width="1.24852" stroke-linecap="round" stroke-linejoin="round"/>
<path d="M26.1844 6.73592C26.0635 6.23786 25.8769 5.76009 25.63 5.31655C25.3929 4.85514 25.0897 4.43492 24.7311 4.07066C24.2112 3.52521 23.5955 3.09135 22.9182 2.79323C21.5551 2.20434 20.0264 2.20434 18.6633 2.79323C18.0232 3.07843 17.4351 3.47866 16.9254 3.97604L16.8505 4.07066L15.8766 5.09576L14.9028 4.07066L14.8279 3.97604C14.3181 3.47866 13.73 3.07843 13.0899 2.79323C11.7268 2.20434 10.1981 2.20434 8.83499 2.79323C8.15777 3.09135 7.54206 3.52521 7.02214 4.07066C6.31103 4.799 5.80764 5.7222 5.56887 6.73592C5.44184 7.25071 5.38137 7.78118 5.38908 8.31299C5.38908 8.81292 5.44901 9.31127 5.56887 9.79544C5.69447 10.2844 5.87556 10.7557 6.10823 11.199C6.3595 11.6548 6.66679 12.0737 7.02214 12.4449L15.8766 21.7654L24.7311 12.4449C25.0862 12.0775 25.3903 11.6564 25.63 11.199C26.1166 10.3239 26.3702 9.32696 26.3641 8.31299C26.3719 7.78118 26.3114 7.25069 26.1844 6.73592ZM24.6861 9.30654C24.5067 10.0271 24.1501 10.6853 23.6524 11.2148L15.8466 19.4156L8.04093 11.2148C7.78657 10.9451 7.56512 10.6432 7.38171 10.3159C7.20913 9.99206 7.07335 9.648 6.97719 9.29077C6.90043 8.9336 6.86024 8.56879 6.85734 8.20259C6.85937 7.82593 6.89955 7.45057 6.97719 7.08287C7.07053 6.72462 7.20645 6.3802 7.38171 6.05777C7.5615 5.72659 7.78324 5.42695 8.04093 5.15884C8.42582 4.75912 8.87798 4.43825 9.37434 4.2126C10.3746 3.7914 11.4904 3.7914 12.4906 4.2126C12.9851 4.42866 13.4315 4.74565 13.8091 5.14307L15.8466 7.30366L17.8842 5.14307C18.2615 4.74495 18.7095 4.42879 19.2027 4.2126C20.2029 3.7914 21.3187 3.7914 22.319 4.2126C22.8149 4.43812 23.2673 4.75984 23.6524 5.15884C23.9131 5.41906 24.1318 5.72186 24.2966 6.05777C24.6436 6.70195 24.8244 7.43052 24.821 8.17105C24.8414 8.55211 24.8111 8.93429 24.7311 9.30654H24.6861Z" fill="#48624C"/>
</svg>
