<svg width="24" height="24" viewBox="0 0 24 24" fill="none" xmlns="http://www.w3.org/2000/svg">
<path d="M13.8299 19.0003C13.6805 19.0008 13.5329 18.9678 13.3979 18.9038C13.263 18.8398 13.144 18.7463 13.0499 18.6303L8.21992 12.6303C8.07284 12.4513 7.99243 12.2269 7.99243 11.9953C7.99243 11.7637 8.07284 11.5392 8.21992 11.3603L13.2199 5.36028C13.3897 5.15606 13.6336 5.02763 13.898 5.00325C14.1624 4.97888 14.4257 5.06054 14.6299 5.23028C14.8341 5.40001 14.9626 5.64393 14.9869 5.90835C15.0113 6.17278 14.9297 6.43606 14.7599 6.64028L10.2899 12.0003L14.6099 17.3603C14.7322 17.5071 14.8099 17.6858 14.8338 17.8753C14.8576 18.0649 14.8267 18.2573 14.7447 18.4299C14.6626 18.6024 14.5328 18.7478 14.3707 18.8489C14.2086 18.95 14.021 19.0025 13.8299 19.0003Z" fill="#A5A5A5"/>
</svg>
