<svg width="13" height="13" viewBox="0 0 13 13" fill="none" xmlns="http://www.w3.org/2000/svg">
<g clip-path="url(#clip0_339_4287)">
<path fill-rule="evenodd" clip-rule="evenodd" d="M4.73545 8.26397C4.65926 8.18781 4.55595 8.14503 4.44823 8.14503C4.3405 8.14503 4.23719 8.18781 4.16101 8.26397L0.833008 11.592V9.34297C0.833008 9.23523 0.790207 9.13189 0.71402 9.05571C0.637833 8.97952 0.534502 8.93672 0.426758 8.93672C0.319014 8.93672 0.215682 8.97952 0.139496 9.05571C0.063309 9.13189 0.0205078 9.23523 0.0205078 9.34297V12.5727C0.0205078 12.6804 0.063309 12.7837 0.139496 12.8599C0.215682 12.9361 0.319014 12.9789 0.426758 12.9789H3.65645C3.76419 12.9789 3.86752 12.9361 3.94371 12.8599C4.01989 12.7837 4.0627 12.6804 4.0627 12.5727C4.0627 12.4649 4.01989 12.3616 3.94371 12.2854C3.86752 12.2092 3.76419 12.1664 3.65645 12.1664H1.40745L4.73545 8.83841C4.81161 8.76222 4.85439 8.65891 4.85439 8.55119C4.85439 8.44347 4.81161 8.34015 4.73545 8.26397ZM8.26495 4.73447C8.34113 4.81063 8.44444 4.85341 8.55217 4.85341C8.65989 4.85341 8.7632 4.81063 8.83938 4.73447L12.1674 1.40647V3.65547C12.1674 3.76321 12.2102 3.86654 12.2864 3.94273C12.3626 4.01892 12.4659 4.06172 12.5736 4.06172C12.6814 4.06172 12.7847 4.01892 12.8609 3.94273C12.9371 3.86654 12.9799 3.76321 12.9799 3.65547V0.425781C12.9799 0.318037 12.9371 0.214706 12.8609 0.138519C12.7847 0.0623325 12.6814 0.0195313 12.5736 0.0195312H9.34395C9.2362 0.0195313 9.13287 0.0623325 9.05668 0.138519C8.9805 0.214706 8.9377 0.318037 8.9377 0.425781C8.9377 0.533525 8.9805 0.636857 9.05668 0.713043C9.13287 0.78923 9.2362 0.832031 9.34395 0.832031H11.5929L8.26495 4.16003C8.18879 4.23621 8.146 4.33953 8.146 4.44725C8.146 4.55497 8.18879 4.65829 8.26495 4.73447Z" fill="black"/>
</g>
<defs>
<clipPath id="clip0_339_4287">
<rect width="13" height="13" fill="white"/>
</clipPath>
</defs>
</svg>
