<svg width="32" height="33" viewBox="0 0 32 33" fill="none" xmlns="http://www.w3.org/2000/svg">
<path d="M7 11.5404C7 10.5679 7.38631 9.63527 8.07394 8.94764C8.76157 8.26001 9.69421 7.8737 10.6667 7.8737C11.6391 7.8737 12.5718 8.26001 13.2594 8.94764C13.947 9.63527 14.3333 10.5679 14.3333 11.5404C14.3333 12.5128 13.947 13.4455 13.2594 14.1331C12.5718 14.8207 11.6391 15.207 10.6667 15.207C9.69421 15.207 8.76157 14.8207 8.07394 14.1331C7.38631 13.4455 7 12.5128 7 11.5404ZM10.6667 6.20703C9.25218 6.20703 7.89562 6.76893 6.89543 7.76913C5.89524 8.76932 5.33333 10.1259 5.33333 11.5404C5.33333 12.9549 5.89524 14.3114 6.89543 15.3116C7.89562 16.3118 9.25218 16.8737 10.6667 16.8737C12.0812 16.8737 13.4377 16.3118 14.4379 15.3116C15.4381 14.3114 16 12.9549 16 11.5404C16 10.1259 15.4381 8.76932 14.4379 7.76913C13.4377 6.76893 12.0812 6.20703 10.6667 6.20703ZM20.3333 12.8737C20.3333 12.2549 20.5792 11.6614 21.0167 11.2238C21.4543 10.7862 22.0478 10.5404 22.6667 10.5404C23.2855 10.5404 23.879 10.7862 24.3166 11.2238C24.7542 11.6614 25 12.2549 25 12.8737C25 13.4925 24.7542 14.086 24.3166 14.5236C23.879 14.9612 23.2855 15.207 22.6667 15.207C22.0478 15.207 21.4543 14.9612 21.0167 14.5236C20.5792 14.086 20.3333 13.4925 20.3333 12.8737ZM22.6667 8.8737C21.6058 8.8737 20.5884 9.29513 19.8382 10.0453C19.0881 10.7954 18.6667 11.8128 18.6667 12.8737C18.6667 13.9346 19.0881 14.952 19.8382 15.7021C20.5884 16.4523 21.6058 16.8737 22.6667 16.8737C23.7275 16.8737 24.7449 16.4523 25.4951 15.7021C26.2452 14.952 26.6667 13.9346 26.6667 12.8737C26.6667 11.8128 26.2452 10.7954 25.4951 10.0453C24.7449 9.29513 23.7275 8.8737 22.6667 8.8737ZM22.6667 26.8737C21.216 26.8737 20.052 26.639 19.1227 26.259L19.2467 26.099C19.576 25.665 19.8287 25.2304 20.022 24.8184C20.702 25.055 21.566 25.207 22.666 25.207C25.5167 25.207 26.7813 24.185 27.3747 23.3197C27.7126 22.8225 27.9242 22.2504 27.9913 21.653C27.9952 21.614 27.9978 21.5749 27.9993 21.5357V21.3737C27.9993 20.9137 27.626 20.5404 27.166 20.5404H20.5753C20.4384 19.9242 20.151 19.3516 19.7387 18.8737H27.1667C27.8297 18.8737 28.4656 19.1371 28.9344 19.6059C29.4033 20.0748 29.6667 20.7107 29.6667 21.3737V21.5717L29.6647 21.629C29.662 21.6757 29.658 21.7384 29.6513 21.815C29.5568 22.6922 29.2474 23.5326 28.7507 24.2617C27.8007 25.645 25.982 26.8737 22.6653 26.8737H22.6667ZM4.5 18.8737C3.83696 18.8737 3.20107 19.1371 2.73223 19.6059C2.26339 20.0748 2 20.7107 2 21.3737V22.2424L2.00267 22.307C2.00533 22.3604 2.01067 22.431 2.02 22.519C2.03933 22.6937 2.076 22.9337 2.148 23.219C2.33906 23.9706 2.67912 24.6761 3.148 25.2937C4.31933 26.8377 6.55067 28.207 10.6667 28.207C14.7833 28.207 17.0147 26.8377 18.1847 25.2937C18.6539 24.6759 18.9941 23.9702 19.1853 23.2184C19.2573 22.9337 19.294 22.6937 19.3133 22.5184C19.3234 22.4266 19.3301 22.3346 19.3333 22.2424V21.3737C19.3333 21.0454 19.2687 20.7203 19.143 20.417C19.0174 20.1137 18.8332 19.8381 18.6011 19.6059C18.369 19.3738 18.0934 19.1896 17.79 19.064C17.4867 18.9384 17.1616 18.8737 16.8333 18.8737H4.5ZM3.66733 22.223L3.66667 22.2017V21.3737C3.66667 20.9137 4.04 20.5404 4.5 20.5404H16.8333C17.2933 20.5404 17.6667 20.9137 17.6667 21.3737V22.2017L17.666 22.223C17.6509 22.421 17.6188 22.6173 17.57 22.8097C17.4335 23.3449 17.191 23.8473 16.8567 24.287C16.0687 25.327 14.3833 26.5404 10.6667 26.5404C6.95 26.5404 5.26467 25.327 4.47667 24.287C4.14243 23.8475 3.89986 23.3454 3.76333 22.8104C3.71456 22.6177 3.68244 22.4212 3.66733 22.223Z" fill="#222222"/>
</svg>
