<svg width="24" height="21" viewBox="0 0 24 21" fill="none" xmlns="http://www.w3.org/2000/svg">
<path d="M11.9999 20.9958L11.5919 20.6558C2.81994 13.5158 0.439941 10.9998 0.439941 6.9198C0.439941 3.5198 3.15994 0.799805 6.55994 0.799805C9.34794 0.799805 10.9119 2.3638 11.9999 3.58781C13.0879 2.3638 14.6519 0.799805 17.4399 0.799805C20.8399 0.799805 23.5599 3.5198 23.5599 6.9198C23.5599 10.9998 21.1799 13.5158 12.4079 20.6558L11.9999 20.9958ZM6.55994 2.1598C3.90794 2.1598 1.79994 4.2678 1.79994 6.9198C1.79994 10.3878 3.97594 12.6998 11.9999 19.2278C20.0239 12.6998 22.1999 10.3878 22.1999 6.9198C22.1999 4.2678 20.0919 2.1598 17.4399 2.1598C15.0599 2.1598 13.7679 3.5878 12.7479 4.7438L11.9999 5.62781L11.2519 4.7438C10.2319 3.5878 8.93994 2.1598 6.55994 2.1598Z" fill="black"/>
</svg>
