<svg width="31" height="31" viewBox="0 0 31 31" fill="none" xmlns="http://www.w3.org/2000/svg">
<path d="M28.1562 17.39C28.4342 17.39 28.7009 17.5005 28.8976 17.6972C29.0942 17.8939 29.2046 18.1606 29.2046 18.4388V27.2394C29.2451 28.4559 29.0983 29.2545 28.5546 29.7564C28.0483 30.2224 27.3144 30.3557 26.3633 30.3048H5.63825C4.67366 30.2568 3.92476 29.8658 3.57727 29.0762C3.34661 28.5563 3.23877 27.942 3.23877 27.2364V18.4373C3.23877 18.1591 3.34923 17.8924 3.54586 17.6957C3.74248 17.499 4.00916 17.3885 4.28723 17.3885C4.5653 17.3885 4.83198 17.499 5.0286 17.6957C5.22523 17.8924 5.33569 18.1591 5.33569 18.4373V27.2364C5.33569 27.584 5.37463 27.8656 5.44054 28.0784L5.49446 28.2252L5.48996 28.2102C5.49146 28.1908 5.5349 28.1982 5.68767 28.2072H26.4172C26.7842 28.2282 27.0179 28.2072 27.1002 28.2057L27.1062 28.2042C27.0868 28.1248 27.1242 27.7997 27.1062 27.2723V18.4373C27.1062 18.2994 27.1334 18.1629 27.1862 18.0356C27.239 17.9082 27.3163 17.7925 27.4138 17.6951C27.5114 17.5977 27.6271 17.5205 27.7545 17.4679C27.8819 17.4153 28.0184 17.3883 28.1562 17.3885V17.39ZM16.5572 0.350586C16.9526 0.350586 17.3061 0.506402 17.6386 0.795561L30.5572 12.9897C30.659 13.0838 30.7412 13.1973 30.799 13.3235C30.8567 13.4496 30.8888 13.586 30.8935 13.7247C30.8981 13.8634 30.8752 14.0016 30.8261 14.1314C30.777 14.2611 30.7026 14.3798 30.6073 14.4806C30.512 14.5814 30.3976 14.6623 30.2708 14.7186C30.144 14.7749 30.0073 14.8054 29.8686 14.8085C29.7299 14.8115 29.592 14.787 29.4629 14.7363C29.3337 14.6857 29.2159 14.6099 29.1163 14.5134L16.5093 2.61142L2.66361 14.5448C2.45308 14.7266 2.17897 14.8173 1.90159 14.797C1.6242 14.7766 1.36627 14.6468 1.18454 14.4362C1.0028 14.2256 0.91214 13.9514 0.932505 13.674C0.952869 13.3965 1.08259 13.1385 1.29313 12.9567L15.4414 0.765597L15.5702 0.66971C15.8907 0.468946 16.2112 0.352084 16.5587 0.352084L16.5572 0.350586Z" fill="#48624C"/>
</svg>
