<svg width="24" height="35" viewBox="0 0 24 35" fill="none" xmlns="http://www.w3.org/2000/svg">
<g clip-path="url(#clip0_339_3507)">
<path d="M23.5002 3.29669C23.5002 3.16439 23.4416 3.03751 23.3373 2.94396C23.2331 2.85041 23.0917 2.79785 22.9443 2.79785H0.661612C0.514178 2.79785 0.372783 2.85041 0.268532 2.94396C0.164281 3.03751 0.105713 3.16439 0.105713 3.29669C0.105713 3.42899 0.164281 3.55587 0.268532 3.64942C0.372783 3.74297 0.514178 3.79552 0.661612 3.79552H22.9454C23.0926 3.79526 23.2337 3.74259 23.3377 3.64907C23.4417 3.55555 23.5002 3.42882 23.5002 3.29669ZM22.365 8.89563V5.29203C22.365 5.15973 22.3064 5.03285 22.2022 4.9393C22.0979 4.84575 21.9565 4.7932 21.8091 4.7932H1.88792C1.74049 4.7932 1.5991 4.84575 1.49484 4.9393C1.39059 5.03285 1.33203 5.15973 1.33203 5.29203V8.89563C1.33203 13.8601 5.56575 17.2262 8.01838 18.7586C5.20664 20.4966 1.24086 23.8039 1.24086 28.6256V32.2292C1.24086 32.3615 1.29943 32.4884 1.40368 32.5819C1.50793 32.6755 1.64932 32.728 1.79676 32.728H21.8091C21.9565 32.728 22.0979 32.6755 22.2022 32.5819C22.3064 32.4884 22.365 32.3615 22.365 32.2292V28.6545C22.365 23.7041 18.0701 20.309 15.5886 18.7616C18.4003 17.0237 22.365 13.7174 22.365 8.89563ZM11.8029 26.9316L17.1507 31.7304H6.45519L11.8029 26.9316ZM14.2845 18.3396C14.205 18.3843 14.1395 18.4464 14.094 18.52C14.0486 18.5937 14.0248 18.6764 14.0248 18.7606C14.0248 18.8448 14.0486 18.9276 14.094 19.0012C14.1395 19.0749 14.205 19.1369 14.2845 19.1816C16.3802 20.3739 21.2532 23.6841 21.2532 28.6545V31.7304H18.7094C18.6994 31.7194 18.695 31.7054 18.6838 31.6955L12.3588 26.0197V25.2455C12.3588 25.1132 12.3003 24.9863 12.196 24.8928C12.0918 24.7992 11.9504 24.7467 11.8029 24.7467C11.6555 24.7467 11.5141 24.7992 11.4099 24.8928C11.3056 24.9863 11.247 25.1132 11.247 25.2455V26.0197L4.92202 31.6955C4.9109 31.7054 4.90645 31.7194 4.89645 31.7304H2.35266V28.6256C2.35266 23.8597 6.71868 20.6632 9.3214 19.1826C9.40062 19.1376 9.46588 19.0754 9.5111 19.0017C9.55631 18.928 9.58002 18.8452 9.58002 18.7611C9.58002 18.677 9.55631 18.5942 9.5111 18.5205C9.46588 18.4468 9.40062 18.3846 9.3214 18.3396C7.25346 17.1623 2.35266 13.887 2.35266 8.89563V5.79087H21.2532V8.89563C21.2532 13.6625 16.8872 16.8581 14.2845 18.3396Z" fill="#222222"/>
<path d="M17.4075 11.748H6.49632C6.39848 11.7482 6.30241 11.7715 6.21779 11.8156C6.13318 11.8597 6.06299 11.923 6.0143 11.9992C5.96561 12.0753 5.94013 12.1616 5.94044 12.2494C5.94074 12.3372 5.96681 12.4234 6.01603 12.4993C7.33573 14.5156 9.26248 15.7497 11.3026 17.0577L11.4794 17.1704C11.5737 17.2311 11.6869 17.2638 11.8029 17.2638C11.919 17.2638 12.0322 17.2311 12.1265 17.1704C12.4178 16.9838 12.7113 16.8003 13.0048 16.6167C14.827 15.4754 16.7115 14.2961 17.8867 12.4993C17.9366 12.4236 17.9632 12.3374 17.9639 12.2494C17.9646 12.1615 17.9393 12.0749 17.8906 11.9986C17.842 11.9222 17.7716 11.8588 17.6867 11.8148C17.6019 11.7708 17.5055 11.7478 17.4075 11.748ZM12.3677 15.7976L11.804 16.1518C10.1308 15.0793 8.6521 14.1145 7.52807 12.7447H16.3591C15.3129 13.9539 13.8753 14.8538 12.3677 15.7976ZM0.661612 34.7225H22.9454C23.0928 34.7225 23.2342 34.6699 23.3384 34.5764C23.4427 34.4828 23.5013 34.3559 23.5013 34.2236C23.5013 34.0913 23.4427 33.9644 23.3384 33.8709C23.2342 33.7773 23.0928 33.7248 22.9454 33.7248H0.661612C0.514178 33.7248 0.372783 33.7773 0.268532 33.8709C0.164281 33.9644 0.105713 34.0913 0.105713 34.2236C0.105713 34.3559 0.164281 34.4828 0.268532 34.5764C0.372783 34.6699 0.514178 34.7225 0.661612 34.7225ZM11.8029 21.7527C11.6555 21.7527 11.5141 21.8053 11.4099 21.8988C11.3056 21.9924 11.247 22.1193 11.247 22.2516V23.2492C11.247 23.3815 11.3056 23.5084 11.4099 23.602C11.5141 23.6955 11.6555 23.7481 11.8029 23.7481C11.9504 23.7481 12.0918 23.6955 12.196 23.602C12.3003 23.5084 12.3588 23.3815 12.3588 23.2492V22.2516C12.3588 22.1193 12.3003 21.9924 12.196 21.8988C12.0918 21.8053 11.9504 21.7527 11.8029 21.7527ZM11.8029 18.7597C11.6555 18.7597 11.5141 18.8123 11.4099 18.9058C11.3056 18.9994 11.247 19.1262 11.247 19.2585V20.2562C11.247 20.3885 11.3056 20.5154 11.4099 20.6089C11.5141 20.7025 11.6555 20.755 11.8029 20.755C11.9504 20.755 12.0918 20.7025 12.196 20.6089C12.3003 20.5154 12.3588 20.3885 12.3588 20.2562V19.2585C12.3588 19.1262 12.3003 18.9994 12.196 18.9058C12.0918 18.8123 11.9504 18.7597 11.8029 18.7597Z" fill="#222222"/>
</g>
<defs>
<clipPath id="clip0_339_3507">
<rect width="24" height="34" fill="white" transform="translate(0 0.874023)"/>
</clipPath>
</defs>
</svg>
