<svg width="33" height="32" viewBox="0 0 33 32" fill="none" xmlns="http://www.w3.org/2000/svg">
<path fill-rule="evenodd" clip-rule="evenodd" d="M9.29232 24.693C14.6336 23.9127 18.3113 23.9798 23.6596 24.7204C24.0469 24.7765 24.4009 24.9709 24.656 25.2677C24.9112 25.5644 25.0503 25.9435 25.0478 26.3348C25.0478 26.7094 24.9191 27.073 24.6865 27.3571C24.2812 27.8523 23.866 28.3393 23.4411 28.8178H25.502C25.6315 28.6633 25.7618 28.5057 25.8937 28.3457C26.3565 27.7781 26.609 27.068 26.6084 26.3356C26.6084 24.7555 25.4551 23.3938 23.8734 23.1753C18.3987 22.4176 14.572 22.3451 9.0668 23.1496C7.4687 23.3829 6.32007 24.7656 6.32007 26.3567C6.32007 27.0629 6.55026 27.7613 6.98646 28.327C7.11522 28.494 7.24241 28.6579 7.36882 28.8186H9.37971C8.98442 28.3454 8.59886 27.8641 8.22327 27.375C8.00007 27.0823 7.87967 26.724 7.88071 26.3559C7.88071 25.5155 8.48468 24.8109 9.29232 24.693ZM16.4643 17.113C17.0791 17.113 17.6879 16.9919 18.256 16.7566C18.824 16.5213 19.3401 16.1764 19.7749 15.7417C20.2096 15.3069 20.5545 14.7908 20.7898 14.2228C21.0251 13.6547 21.1462 13.0459 21.1462 12.4311C21.1462 11.8162 21.0251 11.2074 20.7898 10.6394C20.5545 10.0713 20.2096 9.55519 19.7749 9.12043C19.3401 8.68567 18.824 8.3408 18.256 8.10551C17.6879 7.87022 17.0791 7.74912 16.4643 7.74912C15.2225 7.74912 14.0317 8.2424 13.1536 9.12043C12.2756 9.99846 11.7823 11.1893 11.7823 12.4311C11.7823 13.6728 12.2756 14.8637 13.1536 15.7417C14.0317 16.6197 15.2225 17.113 16.4643 17.113ZM16.4643 18.6736C18.1199 18.6736 19.7077 18.0159 20.8784 16.8452C22.0491 15.6745 22.7068 14.0867 22.7068 12.4311C22.7068 10.7754 22.0491 9.1876 20.8784 8.01689C19.7077 6.84617 18.1199 6.18848 16.4643 6.18848C14.8086 6.18848 13.2208 6.84617 12.0501 8.01689C10.8794 9.1876 10.2217 10.7754 10.2217 12.4311C10.2217 14.0867 10.8794 15.6745 12.0501 16.8452C13.2208 18.0159 14.8086 18.6736 16.4643 18.6736Z" fill="#48624C"/>
<path fill-rule="evenodd" clip-rule="evenodd" d="M16.4644 30.3788C24.2215 30.3788 30.5102 24.0902 30.5102 16.333C30.5102 8.57582 24.2215 2.28721 16.4644 2.28721C8.70717 2.28721 2.41855 8.57582 2.41855 16.333C2.41855 24.0902 8.70717 30.3788 16.4644 30.3788ZM16.4644 31.9395C25.0838 31.9395 32.0708 24.9524 32.0708 16.333C32.0708 7.71357 25.0838 0.726562 16.4644 0.726562C7.84492 0.726562 0.85791 7.71357 0.85791 16.333C0.85791 24.9524 7.84492 31.9395 16.4644 31.9395Z" fill="#48624C"/>
</svg>
